HIERARCHY
ROOT Hips
{
	OFFSET 0.000000 71.427986 0.000000
	CHANNELS 6 Xposition Yposition Zposition Xrotation Yrotation Zrotation
	JOINT Pelvis
	{
		OFFSET 0.000000 0.000000 0.000000
		CHANNELS 3 Xrotation Yrotation Zrotation
		JOINT LeftUpLeg
		{
			OFFSET 6.797100 -2.508499 -1.318700
			CHANNELS 3 Xrotation Yrotation Zrotation
			JOINT LeftLeg
			{
				OFFSET 0.069008 -29.241863 0.690200
				CHANNELS 3 Xrotation Yrotation Zrotation
				JOINT LeftFoot
				{
					OFFSET -0.069008 -29.568123 -0.266800
					CHANNELS 3 Xrotation Yrotation Zrotation
					JOINT LeftToeBase
					{
						OFFSET 3.145500 -8.631000 16.059900
						CHANNELS 3 Xrotation Yrotation Zrotation
						End Site
						{
							OFFSET 0.000000 18.501587 0.000000
						}
					}
				}
			}
			JOINT Left_ShortSleeve
			{
				OFFSET 0.265923 -10.480953 1.153800
				CHANNELS 3 Xrotation Yrotation Zrotation
				End Site
				{
					OFFSET 1.725763 19.823879 0.000000
				}
			}
		}
		JOINT RightUpLeg
		{
			OFFSET -6.797100 -2.508499 -1.318700
			CHANNELS 3 Xrotation Yrotation Zrotation
			JOINT RightLeg
			{
				OFFSET -0.082453 -29.241932 0.688000
				CHANNELS 3 Xrotation Yrotation Zrotation
				JOINT RightFoot
				{
					OFFSET 0.082453 -29.568058 -0.264600
					CHANNELS 3 Xrotation Yrotation Zrotation
					JOINT RightToeBase
					{
						OFFSET -3.115300 -8.682800 16.113400
						CHANNELS 3 Xrotation Yrotation Zrotation
						End Site
						{
							OFFSET 0.000000 18.567114 0.000000
						}
					}
				}
			}
			JOINT Right_ShortSleeve
			{
				OFFSET -0.265923 -10.480953 1.153800
				CHANNELS 3 Xrotation Yrotation Zrotation
				End Site
				{
					OFFSET -1.725766 19.823910 0.000000
				}
			}
		}
	}
	JOINT Spine
	{
		OFFSET 0.000000 13.368103 0.470500
		CHANNELS 3 Xrotation Yrotation Zrotation
		JOINT Spine1
		{
			OFFSET 0.147000 13.837402 0.538800
			CHANNELS 3 Xrotation Yrotation Zrotation
			JOINT Spine2
			{
				OFFSET 0.168000 16.242897 -1.435500
				CHANNELS 3 Xrotation Yrotation Zrotation
				JOINT Neck
				{
					OFFSET 0.217200 18.631500 -1.679100
					CHANNELS 3 Xrotation Yrotation Zrotation
					JOINT Head
					{
						OFFSET 0.000000 6.599396 1.385900
						CHANNELS 3 Xrotation Yrotation Zrotation
						JOINT Hat
						{
							OFFSET -0.532200 27.220596 -10.096100
							CHANNELS 3 Xrotation Yrotation Zrotation
							End Site
							{
								OFFSET 0.000000 22.029861 0.000000
							}
						}
						JOINT HairD
						{
							OFFSET -10.777400 17.437393 -1.325900
							CHANNELS 3 Xrotation Yrotation Zrotation
							JOINT HairD1
							{
								OFFSET -3.290299 -11.051193 1.062200
								CHANNELS 3 Xrotation Yrotation Zrotation
								End Site
								{
									OFFSET 0.000000 11.579437 0.000000
								}
							}
						}
						JOINT HairB
						{
							OFFSET -10.777400 17.437393 1.467900
							CHANNELS 3 Xrotation Yrotation Zrotation
							JOINT HairB1
							{
								OFFSET -1.561200 -12.956299 3.590200
								CHANNELS 3 Xrotation Yrotation Zrotation
								End Site
								{
									OFFSET 0.000000 13.534866 0.000000
								}
							}
						}
						JOINT HairA
						{
							OFFSET 9.713100 17.437393 1.467900
							CHANNELS 3 Xrotation Yrotation Zrotation
							JOINT HairA1
							{
								OFFSET 1.561200 -12.956299 3.590200
								CHANNELS 3 Xrotation Yrotation Zrotation
								End Site
								{
									OFFSET 0.000000 13.534866 0.000000
								}
							}
						}
						JOINT HairC
						{
							OFFSET 9.713100 17.437393 -1.325900
							CHANNELS 3 Xrotation Yrotation Zrotation
							JOINT HairC1
							{
								OFFSET 3.290300 -11.051193 1.062200
								CHANNELS 3 Xrotation Yrotation Zrotation
								End Site
								{
									OFFSET 0.000000 11.579437 0.000000
								}
							}
						}
					}
				}
				JOINT LeftShoulder
				{
					OFFSET 5.101800 15.108002 -2.763700
					CHANNELS 3 Xrotation Yrotation Zrotation
					JOINT LeftArm
					{
						OFFSET 9.825497 2.506317 -1.597400
						CHANNELS 3 Xrotation Yrotation Zrotation
						JOINT LeftForeArm
						{
							OFFSET 21.966244 0.000000 0.000000
							CHANNELS 3 Xrotation Yrotation Zrotation
							JOINT LeftHand
							{
								OFFSET 33.879036 0.000000 0.000000
								CHANNELS 3 Xrotation Yrotation Zrotation
								JOINT LeftHandThumb1
								{
									OFFSET 6.715286 -2.359680 3.363841
									CHANNELS 3 Xrotation Yrotation Zrotation
									JOINT LeftHandThumb2
									{
										OFFSET 2.507072 -1.447464 1.447461
										CHANNELS 3 Xrotation Yrotation Zrotation
										JOINT LeftHandThumb3
										{
											OFFSET 2.898338 -1.673355 1.673357
											CHANNELS 3 Xrotation Yrotation Zrotation
											End Site
											{
												OFFSET -0.295959 3.727692 -0.131651
											}
										}
									}
								}
								JOINT LeftHandIndex1
								{
									OFFSET 14.190811 -0.254547 3.840278
									CHANNELS 3 Xrotation Yrotation Zrotation
									JOINT LeftHandIndex2
									{
										OFFSET 3.551727 0.000000 -0.000000
										CHANNELS 3 Xrotation Yrotation Zrotation
										JOINT LeftHandIndex3
										{
											OFFSET 2.894196 0.000000 0.000000
											CHANNELS 3 Xrotation Yrotation Zrotation
											End Site
											{
												OFFSET -1.000603 2.690872 0.366626
											}
										}
									}
								}
								JOINT LeftHandMiddle1
								{
									OFFSET 13.776489 0.000000 0.000000
									CHANNELS 3 Xrotation Yrotation Zrotation
									JOINT LeftHandMiddle2
									{
										OFFSET 3.438232 0.000000 0.000000
										CHANNELS 3 Xrotation Yrotation Zrotation
										JOINT LeftHandMiddle3
										{
											OFFSET 3.691551 0.000000 0.000000
											CHANNELS 3 Xrotation Yrotation Zrotation
											End Site
											{
												OFFSET -1.082298 3.499527 0.457670
											}
										}
									}
								}
								JOINT LeftHandRing1
								{
									OFFSET 13.966164 -0.268127 -3.067488
									CHANNELS 3 Xrotation Yrotation Zrotation
									JOINT LeftHandRing2
									{
										OFFSET 3.162567 0.000000 0.000000
										CHANNELS 3 Xrotation Yrotation Zrotation
										JOINT LeftHandRing3
										{
											OFFSET 3.324348 0.000000 0.000000
											CHANNELS 3 Xrotation Yrotation Zrotation
											End Site
											{
												OFFSET -0.861900 3.184998 0.405154
											}
										}
									}
								}
								JOINT LeftHandPinky1
								{
									OFFSET 13.131393 -0.168503 -5.746925
									CHANNELS 3 Xrotation Yrotation Zrotation
									JOINT LeftHandPinky2
									{
										OFFSET 2.849182 0.000000 0.000000
										CHANNELS 3 Xrotation Yrotation Zrotation
										JOINT LeftHandPinky3
										{
											OFFSET 2.805038 0.000000 0.000000
											CHANNELS 3 Xrotation Yrotation Zrotation
											End Site
											{
												OFFSET -0.882500 2.642609 0.325652
											}
										}
									}
								}
							}
							JOINT Left_Sleeve
							{
								OFFSET 6.592125 -0.646545 0.805568
								CHANNELS 3 Xrotation Yrotation Zrotation
								End Site
								{
									OFFSET -0.000179 20.275787 -0.000000
								}
							}
						}
					}
				}
				JOINT RightShoulder
				{
					OFFSET -5.731700 15.108002 -2.763700
					CHANNELS 3 Xrotation Yrotation Zrotation
					JOINT RightArm
					{
						OFFSET -9.825497 2.506317 -1.597400
						CHANNELS 3 Xrotation Yrotation Zrotation
						JOINT RightForeArm
						{
							OFFSET -21.966242 0.000000 0.000000
							CHANNELS 3 Xrotation Yrotation Zrotation
							JOINT RightHand
							{
								OFFSET -33.879032 0.000000 0.000000
								CHANNELS 3 Xrotation Yrotation Zrotation
								JOINT RightHandThumb1
								{
									OFFSET -6.715286 -2.359680 3.363841
									CHANNELS 3 Xrotation Yrotation Zrotation
									JOINT RightHandThumb2
									{
										OFFSET -2.507072 -1.447464 1.447461
										CHANNELS 3 Xrotation Yrotation Zrotation
										JOINT RightHandThumb3
										{
											OFFSET -2.898338 -1.673355 1.673357
											CHANNELS 3 Xrotation Yrotation Zrotation
											End Site
											{
												OFFSET 0.295959 3.727692 -0.131651
											}
										}
									}
								}
								JOINT RightHandIndex1
								{
									OFFSET -14.190811 -0.254547 3.840278
									CHANNELS 3 Xrotation Yrotation Zrotation
									JOINT RightHandIndex2
									{
										OFFSET -3.551727 0.000000 -0.000000
										CHANNELS 3 Xrotation Yrotation Zrotation
										JOINT RightHandIndex3
										{
											OFFSET -2.894196 0.000000 0.000000
											CHANNELS 3 Xrotation Yrotation Zrotation
											End Site
											{
												OFFSET 1.000603 2.690872 0.366626
											}
										}
									}
								}
								JOINT RightHandMiddle1
								{
									OFFSET -13.776489 0.000000 0.000000
									CHANNELS 3 Xrotation Yrotation Zrotation
									JOINT RightHandMiddle2
									{
										OFFSET -3.438232 0.000000 0.000000
										CHANNELS 3 Xrotation Yrotation Zrotation
										JOINT RightHandMiddle3
										{
											OFFSET -3.691551 0.000000 0.000000
											CHANNELS 3 Xrotation Yrotation Zrotation
											End Site
											{
												OFFSET 1.082298 3.499527 0.457670
											}
										}
									}
								}
								JOINT RightHandRing1
								{
									OFFSET -13.966164 -0.268127 -3.067488
									CHANNELS 3 Xrotation Yrotation Zrotation
									JOINT RightHandRing2
									{
										OFFSET -3.162567 0.000000 0.000000
										CHANNELS 3 Xrotation Yrotation Zrotation
										JOINT RightHandRing3
										{
											OFFSET -3.324348 0.000000 0.000000
											CHANNELS 3 Xrotation Yrotation Zrotation
											End Site
											{
												OFFSET 0.861900 3.184998 0.405154
											}
										}
									}
								}
								JOINT RightHandPinky1
								{
									OFFSET -13.131393 -0.168503 -5.746925
									CHANNELS 3 Xrotation Yrotation Zrotation
									JOINT RightHandPinky2
									{
										OFFSET -2.849182 0.000000 0.000000
										CHANNELS 3 Xrotation Yrotation Zrotation
										JOINT RightHandPinky3
										{
											OFFSET -2.805038 0.000000 0.000000
											CHANNELS 3 Xrotation Yrotation Zrotation
											End Site
											{
												OFFSET 0.882500 2.642609 0.325652
											}
										}
									}
								}
							}
							JOINT Right_Sleeve
							{
								OFFSET -6.592125 -0.646545 0.805568
								CHANNELS 3 Xrotation Yrotation Zrotation
								End Site
								{
									OFFSET 0.000179 20.275787 -0.000000
								}
							}
						}
					}
				}
				JOINT Bind_Right_JacketString
				{
					OFFSET -3.534800 11.969597 7.200700
					CHANNELS 3 Xrotation Yrotation Zrotation
					JOINT Bind_Right_JacketString1
					{
						OFFSET -0.319900 -6.102600 2.794100
						CHANNELS 3 Xrotation Yrotation Zrotation
						End Site
						{
							OFFSET 0.000000 6.719452 0.000000
						}
					}
				}
				JOINT Bind_Left_JacketString
				{
					OFFSET 2.904800 11.969597 7.200700
					CHANNELS 3 Xrotation Yrotation Zrotation
					JOINT Bind_Left_JacketString1
					{
						OFFSET 0.364800 -5.904503 3.186800
						CHANNELS 3 Xrotation Yrotation Zrotation
						End Site
						{
							OFFSET 0.000000 6.719513 0.000000
						}
					}
				}
				JOINT HairE
				{
					OFFSET 5.915200 17.612701 -11.592200
					CHANNELS 3 Xrotation Yrotation Zrotation
					JOINT HairE1
					{
						OFFSET 0.289200 -7.171898 -1.284500
						CHANNELS 3 Xrotation Yrotation Zrotation
						End Site
						{
							OFFSET 0.000000 7.291756 0.000000
						}
					}
				}
				JOINT HairF
				{
					OFFSET -0.864800 17.612701 -11.592200
					CHANNELS 3 Xrotation Yrotation Zrotation
					JOINT HairF1
					{
						OFFSET 0.000000 -14.087097 -2.127501
						CHANNELS 3 Xrotation Yrotation Zrotation
						End Site
						{
							OFFSET 0.000000 14.246841 0.000000
						}
					}
				}
				JOINT HairG
				{
					OFFSET -8.087700 17.612701 -11.592200
					CHANNELS 3 Xrotation Yrotation Zrotation
					JOINT HairG1
					{
						OFFSET -0.293600 -6.081398 -0.910100
						CHANNELS 3 Xrotation Yrotation Zrotation
						End Site
						{
							OFFSET 0.000000 6.156120 0.000000
						}
					}
				}
			}
		}
	}
	JOINT Pouch
	{
		OFFSET 0.000000 4.394501 10.847300
		CHANNELS 3 Xrotation Yrotation Zrotation
		End Site
		{
			OFFSET 0.000000 21.880577 0.000000
		}
	}
	JOINT Bag
	{
		OFFSET -13.229000 4.813004 -0.593300
		CHANNELS 3 Xrotation Yrotation Zrotation
		End Site
		{
			OFFSET 0.000000 21.880577 0.000000
		}
	}
	JOINT OccupyGuyFacialAnim_Joint
	{
		OFFSET 1.000000 -70.206398 -1.655000
		CHANNELS 3 Xrotation Yrotation Zrotation
		End Site
		{
			OFFSET 0.000000 21.880577 0.000000
		}
	}
}
MOTION
Frames: 4
Frame Time: 0.033333
-0.179254 73.352249 0.396567 -3.823216 3.897198 -2.522380 0.000000 -0.000000 -0.000000 -16.127417 6.288701 12.941602 36.080027 -4.814963 -0.474067 5.572183 8.206535 -9.089669 0.000000 0.000001 -0.000000 -0.000002 -0.000001 -0.000000 -11.875052 -4.049170 5.356141 34.023399 5.173616 0.568516 3.320503 -3.422082 -4.790908 -0.000002 0.000000 -0.000000 0.000001 0.000000 -0.000000 5.988324 0.220745 2.671042 -3.550194 0.586458 0.346679 -3.529461 0.741175 0.341944 2.004995 -0.186733 1.450353 2.163152 0.933397 -0.591279 -0.000000 -0.000000 -0.000000 -0.000000 -0.000000 -0.000000 -0.000000 -0.000000 -0.000000 -0.000000 -0.000000 -0.000000 0.000000 -0.000000 -0.000000 -0.000000 -0.000000 -0.000000 0.000000 -0.000000 -0.000000 -0.000000 -0.000000 -0.000000 -0.000000 -0.000000 -0.000000 3.238161 -7.216386 -2.362687 -2.386319 17.298550 -78.297703 0.076716 -11.893669 -2.055745 -1.157271 2.633387 1.090957 10.756204 -0.276892 15.888912 -0.880890 26.402955 -5.959956 -0.000001 0.000001 0.000000 1.188895 0.646887 -5.021681 -1.786461 1.895391 -16.721316 0.000001 0.000000 -0.000002 -1.911335 4.426632 -9.349092 -0.022930 4.067431 -23.702455 0.000001 -0.000001 0.000002 -3.667775 10.861621 -6.837886 2.992250 3.448157 -29.220007 -0.000000 0.000001 -0.000001 -4.041960 12.927759 -17.158055 8.429380 2.581993 -31.029935 -0.000001 -0.000001 0.000003 -0.000002 0.000001 0.000000 3.343514 -0.133906 4.446276 4.382009 -6.219283 76.335629 -0.435825 16.015440 0.267716 -0.393400 -6.586812 -2.083712 15.798712 -2.798489 -17.233599 -2.088295 -31.111590 7.333912 -0.000001 0.000001 0.000001 2.362215 -3.636392 8.332173 -2.157215 -2.437968 18.528075 -0.000000 0.000000 0.000002 -1.983315 -5.674624 13.528971 0.253966 -5.076567 26.883963 0.000001 -0.000000 -0.000003 -4.977987 -10.103378 10.693332 4.025767 -4.043586 33.181937 -0.000001 -0.000000 -0.000003 -6.473231 -11.328746 23.223509 10.712090 -2.553442 34.778282 -0.000000 0.000002 0.000001 0.000000 0.000001 0.000000 -0.000000 0.000000 -0.000000 -0.000001 0.000001 -0.000000 -0.000000 0.000000 0.000000 -0.000000 0.000000 0.000000 -0.000000 0.000000 -0.000000 -0.000001 0.000001 -0.000000 -0.000000 0.000000 0.000000 -0.000000 0.000000 0.000000 -0.000000 0.000000 -0.000000 -0.000001 0.000001 -0.000000 0.000000 -0.000000 -0.000000 0.000000 -0.000000 -0.000000 0.000000 -0.000000 -0.000000 
-0.077401 73.329773 0.435925 -3.903043 4.851497 -2.313250 0.000000 -0.000000 0.000000 -16.284610 6.451757 12.748485 36.165872 -5.799574 -0.483687 5.543814 8.294699 -8.649437 -0.000000 -0.000001 -0.000000 -0.000002 0.000000 -0.000000 -11.823668 -3.926036 5.197033 34.271256 4.214925 0.505046 2.978244 -3.411733 -4.382196 0.000001 -0.000000 0.000000 0.000001 0.000000 -0.000000 5.933784 0.224410 2.614050 -3.501034 0.565562 0.386926 -3.476810 0.722334 0.380189 2.089628 -0.712919 1.639586 2.182709 0.551837 -0.708192 0.000000 0.000001 0.000000 0.000000 0.000001 0.000000 0.000000 0.000001 0.000000 0.000000 0.000001 0.000000 0.000000 0.000001 0.000000 0.000000 0.000001 0.000000 0.000000 0.000001 0.000000 0.000000 0.000001 0.000000 0.000000 0.000001 0.000000 3.234543 -7.409123 -2.140377 -2.339028 17.059683 -78.468594 0.051648 -12.166961 -2.055974 -1.182179 2.543744 1.048977 10.772690 -0.146844 15.930060 -0.801294 26.518085 -5.972277 -0.000000 0.000001 0.000003 1.180147 0.650586 -5.168644 -1.787814 1.895087 -16.868547 0.000002 0.000001 -0.000000 -1.919114 4.424992 -9.733288 -0.029279 4.069137 -24.086715 -0.000001 -0.000001 -0.000001 -3.661938 10.850854 -7.223207 2.986608 3.455110 -29.604506 0.000000 0.000002 -0.000002 -4.028957 12.909985 -17.544663 8.427892 2.597733 -31.414888 -0.000000 0.000000 0.000003 -0.000003 0.000000 -0.000001 3.336353 -0.227081 4.473104 4.665941 -6.308353 76.217589 -0.321930 15.898563 0.164325 -0.435105 -6.612398 -2.212041 15.798854 -2.798407 -17.233558 -2.121531 -31.056071 7.334429 0.000002 -0.000002 0.000001 2.358849 -3.637733 8.267065 -2.157747 -2.437629 18.463043 0.000000 0.000000 -0.000003 -1.984726 -5.674510 13.463783 0.252416 -5.076541 26.819037 -0.000000 0.000000 -0.000001 -4.975967 -10.101592 10.628621 4.025209 -4.044125 33.116821 -0.000001 0.000000 -0.000002 -6.471743 -11.325804 23.159023 10.711538 -2.555883 34.713296 -0.000001 0.000000 -0.000001 -0.000000 0.000002 -0.000000 0.000000 -0.000000 -0.000000 0.000000 -0.000000 0.000000 0.000000 -0.000000 -0.000000 0.000000 -0.000000 -0.000000 0.000000 -0.000000 -0.000000 0.000000 -0.000000 0.000000 0.000000 -0.000000 -0.000000 0.000000 -0.000000 -0.000000 0.000000 -0.000000 -0.000000 0.000000 -0.000000 0.000000 0.000000 -0.000000 0.000000 0.000000 -0.000000 0.000000 0.000000 -0.000000 0.000000 
0.207245 73.264671 0.531927 -4.078741 7.209433 -2.029032 -0.000000 0.000000 -0.000000 -16.753602 6.466821 12.419750 36.620776 -8.022913 -0.577733 5.379484 8.530283 -7.594065 0.000003 -0.000001 -0.000000 0.000003 -0.000000 -0.000000 -11.650169 -3.686552 4.973928 34.762473 3.197719 0.455297 2.250817 -4.685842 -3.339139 -0.000001 -0.000000 0.000000 0.000002 0.000000 -0.000000 5.801406 0.238219 2.456632 -3.379023 0.519554 0.478980 -3.346228 0.680969 0.467021 2.304741 -2.005361 2.110973 2.226377 -0.394949 -1.006739 -0.000000 -0.000000 -0.000000 -0.000000 -0.000000 -0.000000 -0.000000 -0.000000 0.000000 -0.000000 -0.000000 -0.000000 -0.000000 -0.000000 0.000000 -0.000000 -0.000000 -0.000000 -0.000000 -0.000000 0.000000 -0.000000 -0.000000 -0.000000 -0.000000 -0.000000 -0.000000 3.230332 -7.859710 -1.604581 -2.222556 16.456743 -78.872525 -0.002788 -12.835677 -2.053394 -1.244477 2.332171 0.962920 10.813835 0.178225 16.033096 -0.602002 26.806126 -6.004346 0.000002 -0.000000 0.000001 1.158364 0.659981 -5.536451 -1.791140 1.894373 -17.236677 0.000001 -0.000001 -0.000000 -1.939049 4.422101 -10.694083 -0.045010 4.074631 -25.047888 0.000001 -0.000001 0.000002 -3.648509 10.825569 -8.187107 2.973433 3.473394 -30.566159 -0.000002 0.000000 0.000001 -3.998053 12.867193 -18.511898 8.426461 2.637514 -32.377518 -0.000000 -0.000001 0.000003 0.000000 0.000001 -0.000002 3.314638 -0.447421 4.540479 5.393340 -6.507264 75.961833 -0.018999 15.634013 -0.096684 -0.533121 -6.695707 -2.464787 15.799088 -2.798230 -17.233558 -2.204657 -30.917155 7.335749 -0.000000 -0.000002 -0.000002 2.350338 -3.641099 8.104066 -2.159117 -2.436677 18.300416 -0.000000 0.000000 -0.000001 -1.988393 -5.674318 13.300728 0.248615 -5.076484 26.656563 0.000001 0.000000 -0.000001 -4.971175 -10.097177 10.466613 4.023888 -4.045568 32.953983 -0.000001 -0.000000 -0.000002 -6.468001 -11.318575 22.997664 10.710183 -2.562026 34.550812 -0.000000 -0.000001 -0.000001 -0.000000 0.000000 -0.000001 -0.000000 -0.000000 -0.000000 -0.000000 -0.000001 -0.000000 -0.000000 -0.000000 -0.000000 -0.000000 -0.000000 -0.000000 -0.000000 -0.000000 -0.000000 -0.000000 -0.000001 -0.000000 -0.000000 -0.000000 -0.000000 -0.000000 -0.000000 -0.000000 -0.000000 -0.000000 -0.000000 -0.000000 -0.000001 -0.000000 -0.000000 0.000000 -0.000000 -0.000000 0.000000 -0.000000 -0.000000 0.000000 -0.000000 
0.623096 73.173088 0.651042 -4.311609 10.230227 -1.688598 0.000000 0.000000 0.000000 -17.253220 5.966412 11.891930 37.256862 -10.422046 -0.872135 5.158514 8.854932 -6.276527 -0.000002 -0.000001 0.000001 0.000000 0.000002 0.000002 -11.375592 -3.329883 4.670143 35.440062 1.737333 0.349821 1.341098 -5.955693 -1.924665 -0.000001 0.000000 -0.000000 -0.000001 -0.000000 0.000000 5.637881 0.270073 2.264820 -3.221593 0.473067 0.580541 -3.178021 0.639489 0.561285 2.601857 -3.642900 2.725049 2.272293 -1.616589 -1.410844 -0.000000 -0.000000 -0.000000 -0.000000 -0.000000 -0.000000 -0.000000 -0.000000 0.000000 -0.000000 -0.000000 -0.000000 -0.000000 -0.000000 -0.000000 -0.000000 -0.000000 -0.000000 -0.000000 -0.000000 -0.000000 -0.000000 -0.000000 -0.000000 -0.000000 -0.000000 -0.000000 3.232725 -8.379724 -0.947754 -2.073256 15.660606 -79.348821 -0.052784 -13.678156 -2.042249 -1.324075 2.083136 0.891307 10.867176 0.603013 16.168195 -0.340772 27.182971 -6.048641 -0.000001 0.000001 -0.000000 1.130240 0.672653 -6.017339 -1.795645 1.893579 -17.718279 0.000001 0.000000 -0.000000 -1.965983 4.421098 -11.950596 -0.065307 4.084055 -26.304775 0.000000 -0.000000 0.000002 -3.633579 10.796179 -9.447607 2.958347 3.499117 -31.823579 0.000000 0.000000 0.000002 -3.961279 12.814656 -19.776637 8.429842 2.690522 -33.636189 0.000000 0.000000 0.000003 -0.000001 -0.000001 0.000001 3.277929 -0.707971 4.629028 6.368248 -6.733043 75.709095 0.437197 15.348048 -0.443256 -0.648056 -6.847628 -2.645902 15.799343 -2.798007 -17.233500 -2.313387 -30.735476 7.337918 0.000001 -0.000002 0.000000 2.339204 -3.645440 7.890789 -2.160940 -2.435393 18.087476 -0.000000 0.000000 0.000000 -1.993177 -5.674062 13.087345 0.243707 -5.076388 26.443808 0.000001 0.000000 0.000001 -4.965082 -10.091592 10.254649 4.022176 -4.047533 32.740881 0.000001 -0.000001 -0.000002 -6.463048 -11.309237 22.786560 10.708512 -2.570228 34.338178 -0.000000 -0.000001 0.000002 0.000001 -0.000001 -0.000000 0.000000 -0.000001 -0.000000 -0.000000 -0.000000 0.000000 0.000000 -0.000001 0.000000 0.000000 -0.000001 0.000000 0.000000 -0.000001 -0.000000 -0.000000 -0.000000 0.000000 0.000000 -0.000001 0.000000 0.000000 -0.000001 0.000000 0.000000 -0.000001 -0.000000 -0.000000 -0.000000 0.000000 0.000000 0.000000 0.000000 0.000000 0.000000 0.000000 0.000000 0.000000 0.000000 
